<svg xmlns="http://www.w3.org/2000/svg" viewBox="5.5 11 53 53" fill="none" shape-rendering="auto" aria-hidden="true" width="512" height="512"><!-- Cadre resserré sur le dessin (viewBox d'origine : 0 0 64 64) : il n'occupait que 56 % de la largeur, et à 16 px le visage devenait illisible. --><!-- Generated by DiceBear (https://www.dicebear.com) --><metadata xmlns:rdf="http://www.w3.org/1999/02/22-rdf-syntax-ns#" xmlns:xsi="http://www.w3.org/2001/XMLSchema-instance" xmlns:dc="http://purl.org/dc/elements/1.1/" xmlns:dcterms="http://purl.org/dc/terms/"><rdf:RDF><rdf:Description><dc:title>Personas by Draftbit</dc:title><dc:creator>Draftbit - draftbit.com</dc:creator><dc:source xsi:type="dcterms:URI">https://personas.draftbit.com/</dc:source><dcterms:license xsi:type="dcterms:URI">https://creativecommons.org/licenses/by/4.0/</dcterms:license><dc:rights>Remix of “Personas by Draftbit” (https://personas.draftbit.com/) by “Draftbit - draftbit.com”, licensed under “CC BY 4.0” (https://creativecommons.org/licenses/by/4.0/)</dc:rights></rdf:Description></rdf:RDF></metadata><defs><g id="eyes-open-4bafdd74"><path d="M5.5 3a1.5 1.5 0 1 1 0 3 1.5 1.5 0 0 1 0-3m13 0a1.5 1.5 0 1 1 0 3 1.5 1.5 0 0 1 0-3" fill="#1B0640"/></g><g id="hair-shortCombover-4bafdd74"><path d="M32.76 10.13a7.9 7.9 0 0 1 4.6 8.35l-.86 6.02q-4.25-2.55-5.6-11.56a9.2 9.2 0 0 1-5.7 2.77q-2.73.3-4.7.3-4.5 0-8-1.5 0 5.5-4 10.5l-.92-8.51a9 9 0 0 1 8.95-9.98H33.5q0 1.94-.74 3.63" fill="#f29c65"/><path d="M33.5 6.5a9.24 9.24 0 0 1-8.3 9.21 46 46 0 0 1-4.7.29q-4.5 0-8-1.5 0 5.5-4 10.5l-.92-8.53a9 9 0 0 1 8.95-9.97zm1.46 5.1a7.9 7.9 0 0 1 2.4 6.88l-.86 6.02q-3.44-2.07-4.99-8.39a9.3 9.3 0 0 0 3.48-4.5" fill="white" opacity=".26" style="mix-blend-mode:overlay"/></g><g id="clothes-squared-4bafdd74"><path d="M16 2.8v3a5 5 0 0 0 10 0v-3l6.65 2.05a9 9 0 0 1 6.35 8.6v4.35H3v-4.35a9 9 0 0 1 6.35-8.6z" fill="#e24553"/></g><g id="mouth-smile-4bafdd74"><path d="M1 4.4a1 1 0 1 1 1-1.73 6 6 0 0 0 3 .87 6 6 0 0 0 3-.87A1 1 0 1 1 9 4.4a8 8 0 0 1-4 1.14A8 8 0 0 1 1 4.4" fill="#1B0640"/></g><g id="nose-smallRound-4bafdd74"><path d="M4.29 1.99A.75.75 0 1 1 5.7 1.5c.23.7.62 1 1.3 1 .66 0 1.05-.3 1.28-1A.75.75 0 0 1 9.7 2c-.4 1.29-1.36 2-2.69 2S4.72 3.3 4.3 2" fill="black" opacity=".36" style="mix-blend-mode:overlay"/></g><clipPath id="clip-4bafdd74"><rect width="64" height="64" rx="0" ry="0"/></clipPath></defs><g clip-path="url(#clip-4bafdd74)"><path d="M37 46.08V52a5 5 0 0 1-10 0v-5.92A14 14 0 0 1 18.58 37h-.08a4.5 4.5 0 0 1-.5-8.97V27a14 14 0 1 1 28 0v1.03a4.5 4.5 0 0 1-.58 8.97A14 14 0 0 1 37 46.08" fill="#e5a07e"/><mask id="personas-a" style="mask-type:luminance"><path d="M37 46.08V52a5 5 0 0 1-10 0v-5.92A14 14 0 0 1 18.58 37h-.08a4.5 4.5 0 0 1-.5-8.97V27a14 14 0 1 1 28 0v1.03a4.5 4.5 0 0 1-.58 8.97A14 14 0 0 1 37 46.08" fill="white"/></mask><g mask="url(#personas-a)"><path d="M32 13a14 14 0 0 1 14 14v6a14 14 0 1 1-28 0v-6a14 14 0 0 1 14-14" fill="white" opacity=".36" style="mix-blend-mode:overlay"/></g><use transform="translate(20 24)" href="#eyes-open-4bafdd74"/><use transform="translate(9.5 4.5)" href="#hair-shortCombover-4bafdd74"/><use transform="translate(11 46.2)" href="#clothes-squared-4bafdd74"/><use transform="translate(27 37.46)" href="#mouth-smile-4bafdd74"/><use transform="translate(25 32.25)" href="#nose-smallRound-4bafdd74"/></g></svg>